<svg width="55" height="55" xmlns="http://www.w3.org/2000/svg" version="1.1">
 <!-- Generator: Sketch 60.1 (88133) - https://sketch.com -->

 <title>icon-water</title>
 <desc>Created with Sketch.</desc>
 <g>
  <title>Layer 1</title>
  <rect height="55" width="55" y="0" x="0" fill="#D8D8D8" fill-opacity="0" id="Rectangle"/>
  <path transform="rotate(-636 32.7551 41.525) translate(-32.7551 -35.525)" fill="#FFFFFF" stroke-width="2" stroke="#2C303B" id="Rectangle" d="m61.63464,65.23775l5.6873,-0.27442c0.39872,-0.01924 0.73755,0.28839 0.75679,0.68711c0.01364,0.28272 -0.13899,0.54738 -0.39053,0.67717l-1.14992,0.59332c-1.09002,0.56243 -1.72788,1.73176 -1.61067,2.95271l1.56586,16.31136c0.09299,0.9687 -0.61691,1.82938 -1.58562,1.92238c-0.32021,0.03073 -0.64272,-0.02677 -0.93258,-0.16628l-1.06403,-0.51214c-1.06631,-0.51323 -1.73128,-1.60537 -1.69771,-2.78829l0.46273,-16.3029c0.01664,-0.58628 -0.13894,-1.16458 -0.4475,-1.66338l-0.1891,-0.30568c-0.21549,-0.34834 -0.10779,-0.80541 0.24055,-1.0209c0.10691,-0.06613 0.22887,-0.104 0.35443,-0.11006z"/>
  <g transform="rotate(-14 19.2683 32.121) translate(-19.2683 -26.121) translate(3.76831 11.121)" id="Group-2">
   <path transform="rotate(-315 41.8556 40.6939) translate(-22.5872 -8.57298)" fill="#FFFFFF" stroke-width="2" stroke="#2C303B" id="Path" d="m56.04265,51.89385l11.3316,-4.85064c1.52317,-0.65201 3.2865,0.05421 3.93852,1.57738c0.01922,0.0449 0.03734,0.09027 0.05435,0.13606l1.47584,3.97368l0,0"/>
   <path transform="rotate(-315 33.5642 48.7287) translate(-14.2959 -16.6077)" fill="#FFFFFF" stroke-width="2" stroke="#2C303B" id="Rectangle" d="m41.83562,55.62703l11.95476,0.15525c1.62637,0.02113 2.93966,1.33442 2.96079,2.96079l0.17226,13.26407c0.02151,1.65672 -1.30408,3.01719 -2.96079,3.03871c-0.02597,0.00033 -0.05195,0.00033 -0.07792,0l-11.95476,-0.15526c-1.62636,-0.02112 -2.93966,-1.33442 -2.96078,-2.96079l-0.17227,-13.26407c-0.02151,-1.65671 1.30408,-3.01719 2.96079,-3.0387c0.02597,-0.00034 0.05195,-0.00034 0.07792,0z"/>
   <polygon points="44.966745376586914,58.711198806762695 62.89184761047363,58.94399452209473 62.912092208862305,60.50269889831543 44.986989974975586,60.2699031829834 " transform="rotate(-315 36.6039 45.8639) translate(-17.3356 -13.743)" fill="#2C303B" id="Rectangle"/>
   <polygon points="33.00032329559326,70.99252891540527 50.92542362213135,71.22532081604004 50.94566822052002,72.78402519226074 33.0205659866333,72.55122947692871 " transform="rotate(-315 30.6207 52.0046) translate(-11.3523 -19.8837)" fill="#2C303B" id="Rectangle-Copy"/>
  </g>
 </g>
</svg>